<svg xmlns="http://www.w3.org/2000/svg" viewBox="0 0 100 100">
  <style>
    @media (prefers-color-scheme: dark) {
      svg { fill: white; }
    }
  </style>
  <path d="m 19.603353,35.561011 c -2.83358,0 -5.279958,0.573748 -7.340744,1.721232 -2.060786,1.147482 -3.8289595,2.928521 -5.3042942,5.340578 V 36.511203 H 0.45890874 V 75.852334 H 6.9583148 V 53.616929 c 0,-3.817136 0.9726451,-6.837263 2.916341,-9.061975 1.9436952,-2.24813 4.5649242,-3.372162 7.8668662,-3.372162 2.786744,0 4.849358,0.912852 6.184186,2.739457 1.334826,1.803187 2.002433,4.601535 2.002433,8.395254 v 23.534831 h 6.497137 V 53.616929 c 0,-3.840554 0.972645,-6.873547 2.916342,-9.098259 1.943696,-2.224711 4.588391,-3.335878 7.937167,-3.335878 2.739909,0 4.779058,0.912852 6.113884,2.739457 1.334829,1.826604 2.002435,4.624952 2.002435,8.395254 v 23.534831 h 6.497137 V 52.106601 c 0,-5.292475 -1.111167,-9.366238 -3.335878,-12.223237 -2.224713,-2.880417 -5.387892,-4.322353 -9.486047,-4.322353 -3.044342,0 -5.689035,0.691071 -7.937165,2.072734 -2.248132,1.381662 -4.180555,3.525269 -5.7964,6.429105 -0.960139,-2.763327 -2.446738,-4.870602 -4.460688,-6.32252 -1.990533,-1.451917 -4.415713,-2.179319 -7.272712,-2.179319 z m 60.898474,0 c -4.824113,0 -8.712428,1.838567 -11.663098,5.515197 -2.950672,3.676628 -4.426671,8.561053 -4.426671,14.649739 0,6.06527 1.475999,10.934561 4.426671,14.61119 2.95067,3.67663 6.838985,5.515197 11.663098,5.515197 2.903835,0 5.397142,-0.573748 7.481347,-1.721232 2.084203,-1.147482 3.792582,-2.879325 5.127408,-5.19771 v 3.195277 c 0,4.472842 -1.053638,7.810874 -3.161259,10.012167 -2.107622,2.224713 -5.279135,3.335878 -9.517797,3.335878 -1.920277,0 -3.805773,-0.245244 -5.655796,-0.737021 -1.850025,-0.49178 -3.724922,-1.253244 -5.621782,-2.283637 v 6.288503 c 1.89686,0.702542 3.852749,1.216495 5.866699,1.544346 2.01395,0.351271 4.157557,0.528389 6.429105,0.528389 6.135523,0 10.689176,-1.640252 13.663264,-4.918776 2.97409,-3.255105 4.460688,-8.231122 4.460688,-14.928675 v -34.45864 h -6.463122 v 5.971016 c -1.334826,-2.318384 -3.043205,-4.052494 -5.127408,-5.199976 -2.084205,-1.147484 -4.577512,-1.721232 -7.481347,-1.721232 z m 1.58063,5.410879 c 3.489286,0 6.193774,1.288283 8.114052,3.864266 1.943696,2.575981 2.914073,6.206187 2.914073,10.889791 0,4.660189 -0.970377,8.277526 -2.914073,10.853509 -1.920278,2.575982 -4.624766,3.864266 -8.114052,3.864266 -3.465867,0 -6.172623,-1.288284 -8.116319,-3.864266 -1.920277,-2.575983 -2.880058,-6.19332 -2.880058,-10.853509 0,-4.683604 0.959781,-8.31381 2.880058,-10.889791 1.943696,-2.575983 4.650452,-3.864266 8.116319,-3.864266 z" />
</svg>
